<?xml version="1.0" encoding="UTF-8"?><svg id="Layer_1" xmlns="http://www.w3.org/2000/svg" viewBox="0 0 32 32"><defs><style>.cls-1{fill:none;}.cls-1,.cls-2,.cls-3,.cls-4{stroke-width:0px;}.cls-2{fill-rule:evenodd;}.cls-2,.cls-3{fill:#fff;}.cls-4{fill:#ffab00;}</style></defs><rect class="cls-4" width="32" height="32"/><path class="cls-1" d="m0,0h32v32H0V0Z"/><path class="cls-2" d="m26.24,7.5c-4.68-4.69-12.28-4.69-16.97-.01-4.69,4.68-4.69,12.28-.01,16.97,4.68,4.69,12.28,4.69,16.97.01,0,0,0,0,.01-.01l-2.55-2.55c-3.28,3.28-8.59,3.28-11.87,0-3.28-3.28-3.28-8.59,0-11.87,3.28-3.28,8.59-3.28,11.87,0h0s2.55-2.54,2.55-2.54Z"/><path class="cls-2" d="m9.27,24.5c4.69,4.68,12.27,4.68,16.96,0l-2.55-2.55c-3.28,3.28-8.59,3.28-11.87,0,0,0,0,0,0,0l-2.54,2.55Z"/><circle class="cls-3" cx="14.16" cy="16" r="1.8"/><circle class="cls-3" cx="21.35" cy="16" r="1.8"/></svg>